<mxfile host="app.diagrams.net" agent="Mozilla/5.0 (Macintosh; Intel Mac OS X 10_15_7) AppleWebKit/537.36 (KHTML, like Gecko) Chrome/133.0.0.0 Safari/537.36" version="26.0.16">
  <diagram id="C5RBs43oDa-KdzZeNtuy" name="Page-1">
    <mxGraphModel grid="1" page="1" gridSize="10" guides="1" tooltips="1" connect="1" arrows="1" fold="1" pageScale="1" pageWidth="827" pageHeight="1169" math="0" shadow="0">
      <root>
        <mxCell id="WIyWlLk6GJQsqaUBKTNV-0" />
        <mxCell id="WIyWlLk6GJQsqaUBKTNV-1" parent="WIyWlLk6GJQsqaUBKTNV-0" />
        <mxCell id="zkfFHV4jXpPFQw0GAbJ--16" value="" style="endArrow=block;endSize=10;endFill=0;shadow=0;strokeWidth=1;rounded=0;curved=0;edgeStyle=elbowEdgeStyle;elbow=vertical;exitX=1.012;exitY=-0.027;exitDx=0;exitDy=0;exitPerimeter=0;" edge="1" parent="WIyWlLk6GJQsqaUBKTNV-1">
          <mxGeometry width="160" relative="1" as="geometry">
            <mxPoint x="290.00000000000006" y="134.59600000000012" as="sourcePoint" />
            <mxPoint x="210" y="133.41" as="targetPoint" />
          </mxGeometry>
        </mxCell>
        <mxCell id="zkfFHV4jXpPFQw0GAbJ--6" value="Aerobikes" style="swimlane;fontStyle=0;align=center;verticalAlign=top;childLayout=stackLayout;horizontal=1;startSize=26;horizontalStack=0;resizeParent=1;resizeLast=0;collapsible=1;marginBottom=0;rounded=0;shadow=0;strokeWidth=1;" vertex="1" parent="WIyWlLk6GJQsqaUBKTNV-1">
          <mxGeometry x="50" y="310" width="190" height="230" as="geometry">
            <mxRectangle x="130" y="380" width="160" height="26" as="alternateBounds" />
          </mxGeometry>
        </mxCell>
        <mxCell id="zkfFHV4jXpPFQw0GAbJ--7" value="- color: String&#xa;- modelo: String&#xa;- tipo: String" style="text;align=left;verticalAlign=top;spacingLeft=4;spacingRight=4;overflow=hidden;rotatable=0;points=[[0,0.5],[1,0.5]];portConstraint=eastwest;" vertex="1" parent="zkfFHV4jXpPFQw0GAbJ--6">
          <mxGeometry y="26" width="190" height="64" as="geometry" />
        </mxCell>
        <mxCell id="zkfFHV4jXpPFQw0GAbJ--9" value="" style="line;html=1;strokeWidth=1;align=left;verticalAlign=middle;spacingTop=-1;spacingLeft=3;spacingRight=3;rotatable=0;labelPosition=right;points=[];portConstraint=eastwest;" vertex="1" parent="zkfFHV4jXpPFQw0GAbJ--6">
          <mxGeometry y="90" width="190" height="8" as="geometry" />
        </mxCell>
        <mxCell id="zkfFHV4jXpPFQw0GAbJ--11" value="+ getColor(): String&#xa;+ setColor(): void&#xa;+ getModelo(): String&#xa;+ setModelo(): void&#xa;+ getTipo(): String&#xa;+ setTipo(): void&#xa;+ detalles(): String {overrride}&#xa;+ maxTurboJets() : void {override}" style="text;align=left;verticalAlign=top;spacingLeft=4;spacingRight=4;overflow=hidden;rotatable=0;points=[[0,0.5],[1,0.5]];portConstraint=eastwest;" vertex="1" parent="zkfFHV4jXpPFQw0GAbJ--6">
          <mxGeometry y="98" width="190" height="132" as="geometry" />
        </mxCell>
        <mxCell id="zkfFHV4jXpPFQw0GAbJ--13" value="&lt;&lt;interface&gt;&gt;&#xa;Turbojects" style="swimlane;fontStyle=0;align=center;verticalAlign=top;childLayout=stackLayout;horizontal=1;startSize=40;horizontalStack=0;resizeParent=1;resizeLast=0;collapsible=1;marginBottom=0;rounded=0;shadow=0;strokeWidth=1;" vertex="1" parent="WIyWlLk6GJQsqaUBKTNV-1">
          <mxGeometry x="334" y="330" width="160" height="74" as="geometry">
            <mxRectangle x="340" y="380" width="170" height="26" as="alternateBounds" />
          </mxGeometry>
        </mxCell>
        <mxCell id="zkfFHV4jXpPFQw0GAbJ--14" value="maxTurboJets()" style="text;align=left;verticalAlign=top;spacingLeft=4;spacingRight=4;overflow=hidden;rotatable=0;points=[[0,0.5],[1,0.5]];portConstraint=eastwest;" vertex="1" parent="zkfFHV4jXpPFQw0GAbJ--13">
          <mxGeometry y="40" width="160" height="26" as="geometry" />
        </mxCell>
        <mxCell id="zkfFHV4jXpPFQw0GAbJ--17" value="Aerocars" style="swimlane;fontStyle=0;align=center;verticalAlign=top;childLayout=stackLayout;horizontal=1;startSize=26;horizontalStack=0;resizeParent=1;resizeLast=0;collapsible=1;marginBottom=0;rounded=0;shadow=0;strokeWidth=1;" vertex="1" parent="WIyWlLk6GJQsqaUBKTNV-1">
          <mxGeometry x="294" y="40" width="200" height="210" as="geometry">
            <mxRectangle x="550" y="140" width="160" height="26" as="alternateBounds" />
          </mxGeometry>
        </mxCell>
        <mxCell id="zkfFHV4jXpPFQw0GAbJ--19" value="- ncod: int {static}&#xa;- precio: double {final}&#xa;- distancia: double&#xa;- codigo: String&#xa;- responsable: ResponsableVehiculo" style="text;align=left;verticalAlign=top;spacingLeft=4;spacingRight=4;overflow=hidden;rotatable=0;points=[[0,0.5],[1,0.5]];portConstraint=eastwest;rounded=0;shadow=0;html=0;" vertex="1" parent="zkfFHV4jXpPFQw0GAbJ--17">
          <mxGeometry y="26" width="200" height="84" as="geometry" />
        </mxCell>
        <mxCell id="zkfFHV4jXpPFQw0GAbJ--23" value="" style="line;html=1;strokeWidth=1;align=left;verticalAlign=middle;spacingTop=-1;spacingLeft=3;spacingRight=3;rotatable=0;labelPosition=right;points=[];portConstraint=eastwest;" vertex="1" parent="zkfFHV4jXpPFQw0GAbJ--17">
          <mxGeometry y="110" width="200" height="8" as="geometry" />
        </mxCell>
        <mxCell id="zkfFHV4jXpPFQw0GAbJ--24" value="+ getDistancia(): double&#xa;+ setDistancia(): void&#xa;+ getCodigo: String&#xa;+ setCodigo: void&#xa;+ detalles(): String {overrride}&#xa;+ maxTurbojects(): void {override}" style="text;align=left;verticalAlign=top;spacingLeft=4;spacingRight=4;overflow=hidden;rotatable=0;points=[[0,0.5],[1,0.5]];portConstraint=eastwest;" vertex="1" parent="zkfFHV4jXpPFQw0GAbJ--17">
          <mxGeometry y="118" width="200" height="4" as="geometry" />
        </mxCell>
        <mxCell id="zkfFHV4jXpPFQw0GAbJ--0" value="&lt;&lt;abstract&gt;&gt;&#xa;Vehículos" style="swimlane;fontStyle=2;align=center;verticalAlign=top;childLayout=stackLayout;horizontal=1;startSize=40;horizontalStack=0;resizeParent=1;resizeLast=0;collapsible=1;marginBottom=0;rounded=0;shadow=0;strokeWidth=1;" vertex="1" parent="WIyWlLk6GJQsqaUBKTNV-1">
          <mxGeometry x="50" y="40" width="160" height="210" as="geometry">
            <mxRectangle x="210" y="50" width="160" height="26" as="alternateBounds" />
          </mxGeometry>
        </mxCell>
        <mxCell id="zkfFHV4jXpPFQw0GAbJ--2" value="# velocidad: double&#xa;# numPer: int&#xa;# nTurbo: int" style="text;align=left;verticalAlign=top;spacingLeft=4;spacingRight=4;overflow=hidden;rotatable=0;points=[[0,0.5],[1,0.5]];portConstraint=eastwest;rounded=0;shadow=0;html=0;" vertex="1" parent="zkfFHV4jXpPFQw0GAbJ--0">
          <mxGeometry y="40" width="160" height="50" as="geometry" />
        </mxCell>
        <mxCell id="zkfFHV4jXpPFQw0GAbJ--4" value="" style="line;html=1;strokeWidth=1;align=left;verticalAlign=middle;spacingTop=-1;spacingLeft=3;spacingRight=3;rotatable=0;labelPosition=right;points=[];portConstraint=eastwest;" vertex="1" parent="zkfFHV4jXpPFQw0GAbJ--0">
          <mxGeometry y="90" width="160" height="8" as="geometry" />
        </mxCell>
        <mxCell id="zkfFHV4jXpPFQw0GAbJ--5" value="+ getNumper(): int&#xa;+ setNumper(): void&#xa;+ getVelocidad(): double&#xa;+ setVelocidad(): void&#xa;+ getNturbo(): int&#xa;+ setNturbo() void&#xa;+ detalles(): String {abstract}" style="text;align=left;verticalAlign=top;spacingLeft=4;spacingRight=4;overflow=hidden;rotatable=0;points=[[0,0.5],[1,0.5]];portConstraint=eastwest;" vertex="1" parent="zkfFHV4jXpPFQw0GAbJ--0">
          <mxGeometry y="98" width="160" height="112" as="geometry" />
        </mxCell>
        <mxCell id="71MwU1l557rjcyXKy13o-4" value="&lt;&lt;abstract&gt;&gt;&#xa;Tripulación" style="swimlane;fontStyle=2;align=center;verticalAlign=top;childLayout=stackLayout;horizontal=1;startSize=40;horizontalStack=0;resizeParent=1;resizeLast=0;collapsible=1;marginBottom=0;rounded=0;shadow=0;strokeWidth=1;" vertex="1" parent="WIyWlLk6GJQsqaUBKTNV-1">
          <mxGeometry x="40" y="710" width="240" height="260" as="geometry">
            <mxRectangle x="210" y="50" width="160" height="26" as="alternateBounds" />
          </mxGeometry>
        </mxCell>
        <mxCell id="71MwU1l557rjcyXKy13o-5" value="# nombre: String&#xa;# sexo: char&#xa;# codigo: String" style="text;align=left;verticalAlign=top;spacingLeft=4;spacingRight=4;overflow=hidden;rotatable=0;points=[[0,0.5],[1,0.5]];portConstraint=eastwest;rounded=0;shadow=0;html=0;" vertex="1" parent="71MwU1l557rjcyXKy13o-4">
          <mxGeometry y="40" width="240" height="50" as="geometry" />
        </mxCell>
        <mxCell id="71MwU1l557rjcyXKy13o-6" value="" style="line;html=1;strokeWidth=1;align=left;verticalAlign=middle;spacingTop=-1;spacingLeft=3;spacingRight=3;rotatable=0;labelPosition=right;points=[];portConstraint=eastwest;" vertex="1" parent="71MwU1l557rjcyXKy13o-4">
          <mxGeometry y="90" width="240" height="8" as="geometry" />
        </mxCell>
        <mxCell id="71MwU1l557rjcyXKy13o-7" value="+ Tripulacion(nombre : String, sexo : char, &#xa;codigo : String)&#xa;+ getNombre(): String&#xa;+ setNombre(): void&#xa;+ getSexo(): char&#xa;+ setSexo(): void&#xa;+ getCodigo(): String&#xa;+ setCodigo(): void&#xa;+ generarCodio(): String {abstract}" style="text;align=left;verticalAlign=top;spacingLeft=4;spacingRight=4;overflow=hidden;rotatable=0;points=[[0,0.5],[1,0.5]];portConstraint=eastwest;" vertex="1" parent="71MwU1l557rjcyXKy13o-4">
          <mxGeometry y="98" width="240" height="140" as="geometry" />
        </mxCell>
        <mxCell id="71MwU1l557rjcyXKy13o-8" value="Soldados" style="swimlane;fontStyle=0;align=center;verticalAlign=top;childLayout=stackLayout;horizontal=1;startSize=26;horizontalStack=0;resizeParent=1;resizeLast=0;collapsible=1;marginBottom=0;rounded=0;shadow=0;strokeWidth=1;" vertex="1" parent="WIyWlLk6GJQsqaUBKTNV-1">
          <mxGeometry x="334" y="670" width="231" height="250" as="geometry">
            <mxRectangle x="130" y="380" width="160" height="26" as="alternateBounds" />
          </mxGeometry>
        </mxCell>
        <mxCell id="71MwU1l557rjcyXKy13o-9" value="- ncod: int {static}&#xa;+ graduacion: int" style="text;align=left;verticalAlign=top;spacingLeft=4;spacingRight=4;overflow=hidden;rotatable=0;points=[[0,0.5],[1,0.5]];portConstraint=eastwest;" vertex="1" parent="71MwU1l557rjcyXKy13o-8">
          <mxGeometry y="26" width="231" height="44" as="geometry" />
        </mxCell>
        <mxCell id="71MwU1l557rjcyXKy13o-10" value="" style="line;html=1;strokeWidth=1;align=left;verticalAlign=middle;spacingTop=-1;spacingLeft=3;spacingRight=3;rotatable=0;labelPosition=right;points=[];portConstraint=eastwest;" vertex="1" parent="71MwU1l557rjcyXKy13o-8">
          <mxGeometry y="70" width="231" height="8" as="geometry" />
        </mxCell>
        <mxCell id="71MwU1l557rjcyXKy13o-11" value="+ Soldados(graduacion : int, nombre&#xa; String, sexo : char, codigo : String) &#xa;+ getNombre() : String {override} &#xa;+ setNombre(): void {override}&#xa;    + getSexo() : char {override}&#xa;    + setSexo(): void {override}&#xa;    + getCodigo() : String {override}&#xa;    + setCodigo(): void {override}&#xa;    + getGraduacion() : int&#xa;    + setGraduacion(): void&#xa;    + generaCodigo() : String {override}" style="text;align=left;verticalAlign=top;spacingLeft=4;spacingRight=4;overflow=hidden;rotatable=0;points=[[0,0.5],[1,0.5]];portConstraint=eastwest;" vertex="1" parent="71MwU1l557rjcyXKy13o-8">
          <mxGeometry y="78" width="231" height="172" as="geometry" />
        </mxCell>
        <mxCell id="71MwU1l557rjcyXKy13o-16" value="Mineros" style="swimlane;fontStyle=0;align=center;verticalAlign=top;childLayout=stackLayout;horizontal=1;startSize=26;horizontalStack=0;resizeParent=1;resizeLast=0;collapsible=1;marginBottom=0;rounded=0;shadow=0;strokeWidth=1;" vertex="1" parent="WIyWlLk6GJQsqaUBKTNV-1">
          <mxGeometry x="270" y="1040" width="210" height="230" as="geometry">
            <mxRectangle x="130" y="380" width="160" height="26" as="alternateBounds" />
          </mxGeometry>
        </mxCell>
        <mxCell id="71MwU1l557rjcyXKy13o-17" value="- ncod : int {static} &#xa; + edad : int" style="text;align=left;verticalAlign=top;spacingLeft=4;spacingRight=4;overflow=hidden;rotatable=0;points=[[0,0.5],[1,0.5]];portConstraint=eastwest;" vertex="1" parent="71MwU1l557rjcyXKy13o-16">
          <mxGeometry y="26" width="210" height="54" as="geometry" />
        </mxCell>
        <mxCell id="71MwU1l557rjcyXKy13o-18" value="" style="line;html=1;strokeWidth=1;align=left;verticalAlign=middle;spacingTop=-1;spacingLeft=3;spacingRight=3;rotatable=0;labelPosition=right;points=[];portConstraint=eastwest;" vertex="1" parent="71MwU1l557rjcyXKy13o-16">
          <mxGeometry y="80" width="210" height="8" as="geometry" />
        </mxCell>
        <mxCell id="71MwU1l557rjcyXKy13o-19" value="+ Mineros(edad : int, nombre &#xa;String, sexo : char, codigo : String) &#xa;+ getNombre() : String {override} &#xa;+ setNombre(): void {override} &#xa;+ getSexo() : char {override} &#xa;+ setSexo(): void {override} &#xa;+ getCodigo() : String {override} &#xa;+ generaCodigo() : String {override}" style="text;align=left;verticalAlign=top;spacingLeft=4;spacingRight=4;overflow=hidden;rotatable=0;points=[[0,0.5],[1,0.5]];portConstraint=eastwest;" vertex="1" parent="71MwU1l557rjcyXKy13o-16">
          <mxGeometry y="88" width="210" height="132" as="geometry" />
        </mxCell>
        <mxCell id="71MwU1l557rjcyXKy13o-25" value="&lt;&lt;abstract&gt;&gt;&#xa;Alienígena" style="swimlane;fontStyle=2;align=center;verticalAlign=top;childLayout=stackLayout;horizontal=1;startSize=40;horizontalStack=0;resizeParent=1;resizeLast=0;collapsible=1;marginBottom=0;rounded=0;shadow=0;strokeWidth=1;" vertex="1" parent="WIyWlLk6GJQsqaUBKTNV-1">
          <mxGeometry x="551" y="28" width="170" height="222" as="geometry">
            <mxRectangle x="210" y="50" width="160" height="26" as="alternateBounds" />
          </mxGeometry>
        </mxCell>
        <mxCell id="71MwU1l557rjcyXKy13o-26" value="- ncond : int {static}&#xa;tipo : String" style="text;align=left;verticalAlign=top;spacingLeft=4;spacingRight=4;overflow=hidden;rotatable=0;points=[[0,0.5],[1,0.5]];portConstraint=eastwest;rounded=0;shadow=0;html=0;" vertex="1" parent="71MwU1l557rjcyXKy13o-25">
          <mxGeometry y="40" width="170" height="50" as="geometry" />
        </mxCell>
        <mxCell id="71MwU1l557rjcyXKy13o-27" value="" style="line;html=1;strokeWidth=1;align=left;verticalAlign=middle;spacingTop=-1;spacingLeft=3;spacingRight=3;rotatable=0;labelPosition=right;points=[];portConstraint=eastwest;" vertex="1" parent="71MwU1l557rjcyXKy13o-25">
          <mxGeometry y="90" width="170" height="8" as="geometry" />
        </mxCell>
        <mxCell id="71MwU1l557rjcyXKy13o-28" value="+ Alienígena(tipo: String)&#xa;+ Duermen():int {abstract}&#xa;+ Comen (): String {abstract}&#xa;+ Atacan(): String {abstract}&#xa;+ generaCódigo(): String" style="text;align=left;verticalAlign=top;spacingLeft=4;spacingRight=4;overflow=hidden;rotatable=0;points=[[0,0.5],[1,0.5]];portConstraint=eastwest;" vertex="1" parent="71MwU1l557rjcyXKy13o-25">
          <mxGeometry y="98" width="170" height="102" as="geometry" />
        </mxCell>
        <mxCell id="71MwU1l557rjcyXKy13o-29" value="Nomun" style="swimlane;fontStyle=2;align=center;verticalAlign=top;childLayout=stackLayout;horizontal=1;startSize=40;horizontalStack=0;resizeParent=1;resizeLast=0;collapsible=1;marginBottom=0;rounded=0;shadow=0;strokeWidth=1;" vertex="1" parent="WIyWlLk6GJQsqaUBKTNV-1">
          <mxGeometry x="810" y="28" width="200" height="212" as="geometry">
            <mxRectangle x="210" y="50" width="160" height="26" as="alternateBounds" />
          </mxGeometry>
        </mxCell>
        <mxCell id="71MwU1l557rjcyXKy13o-30" value="double autotraslación" style="text;align=left;verticalAlign=top;spacingLeft=4;spacingRight=4;overflow=hidden;rotatable=0;points=[[0,0.5],[1,0.5]];portConstraint=eastwest;rounded=0;shadow=0;html=0;" vertex="1" parent="71MwU1l557rjcyXKy13o-29">
          <mxGeometry y="40" width="200" height="30" as="geometry" />
        </mxCell>
        <mxCell id="71MwU1l557rjcyXKy13o-31" value="" style="line;html=1;strokeWidth=1;align=left;verticalAlign=middle;spacingTop=-1;spacingLeft=3;spacingRight=3;rotatable=0;labelPosition=right;points=[];portConstraint=eastwest;" vertex="1" parent="71MwU1l557rjcyXKy13o-29">
          <mxGeometry y="70" width="200" height="8" as="geometry" />
        </mxCell>
        <mxCell id="71MwU1l557rjcyXKy13o-32" value="+ Nomun(tipo : String, autotraslacion &#xa; double) &#xa;+ setAutotraslacion: void &#xa;+ getAutotraslacion() : Double &#xa;+ Duermen() : int {override} &#xa;+ Comen() : String {override} &#xa;+ Atacan() : String {override}" style="text;align=left;verticalAlign=top;spacingLeft=4;spacingRight=4;overflow=hidden;rotatable=0;points=[[0,0.5],[1,0.5]];portConstraint=eastwest;" vertex="1" parent="71MwU1l557rjcyXKy13o-29">
          <mxGeometry y="78" width="200" height="124" as="geometry" />
        </mxCell>
        <mxCell id="71MwU1l557rjcyXKy13o-33" value="&lt;&lt;abstract&gt;&gt;&#xa;Mascotas" style="swimlane;fontStyle=2;align=center;verticalAlign=top;childLayout=stackLayout;horizontal=1;startSize=40;horizontalStack=0;resizeParent=1;resizeLast=0;collapsible=1;marginBottom=0;rounded=0;shadow=0;strokeWidth=1;" vertex="1" parent="WIyWlLk6GJQsqaUBKTNV-1">
          <mxGeometry x="617" y="314" width="210" height="222" as="geometry">
            <mxRectangle x="210" y="50" width="160" height="26" as="alternateBounds" />
          </mxGeometry>
        </mxCell>
        <mxCell id="71MwU1l557rjcyXKy13o-34" value="- ncond : int {static}" style="text;align=left;verticalAlign=top;spacingLeft=4;spacingRight=4;overflow=hidden;rotatable=0;points=[[0,0.5],[1,0.5]];portConstraint=eastwest;rounded=0;shadow=0;html=0;" vertex="1" parent="71MwU1l557rjcyXKy13o-33">
          <mxGeometry y="40" width="210" height="30" as="geometry" />
        </mxCell>
        <mxCell id="71MwU1l557rjcyXKy13o-35" value="" style="line;html=1;strokeWidth=1;align=left;verticalAlign=middle;spacingTop=-1;spacingLeft=3;spacingRight=3;rotatable=0;labelPosition=right;points=[];portConstraint=eastwest;" vertex="1" parent="71MwU1l557rjcyXKy13o-33">
          <mxGeometry y="70" width="210" height="8" as="geometry" />
        </mxCell>
        <mxCell id="71MwU1l557rjcyXKy13o-36" value="+ Mascotas(nombre : String, &#xa;codigo : String) &#xa;+ Comunican() : String {abstract} &#xa;+ Duermen() : String {abstract} &#xa;+ Comen() : String {abstract} &#xa;+ generaCodigo() : String" style="text;align=left;verticalAlign=top;spacingLeft=4;spacingRight=4;overflow=hidden;rotatable=0;points=[[0,0.5],[1,0.5]];portConstraint=eastwest;" vertex="1" parent="71MwU1l557rjcyXKy13o-33">
          <mxGeometry y="78" width="210" height="124" as="geometry" />
        </mxCell>
        <mxCell id="71MwU1l557rjcyXKy13o-37" value="Perros" style="swimlane;fontStyle=2;align=center;verticalAlign=top;childLayout=stackLayout;horizontal=1;startSize=40;horizontalStack=0;resizeParent=1;resizeLast=0;collapsible=1;marginBottom=0;rounded=0;shadow=0;strokeWidth=1;" vertex="1" parent="WIyWlLk6GJQsqaUBKTNV-1">
          <mxGeometry x="617" y="580" width="210" height="222" as="geometry">
            <mxRectangle x="210" y="50" width="160" height="26" as="alternateBounds" />
          </mxGeometry>
        </mxCell>
        <mxCell id="71MwU1l557rjcyXKy13o-38" value="+ raza: String" style="text;align=left;verticalAlign=top;spacingLeft=4;spacingRight=4;overflow=hidden;rotatable=0;points=[[0,0.5],[1,0.5]];portConstraint=eastwest;rounded=0;shadow=0;html=0;" vertex="1" parent="71MwU1l557rjcyXKy13o-37">
          <mxGeometry y="40" width="210" height="30" as="geometry" />
        </mxCell>
        <mxCell id="71MwU1l557rjcyXKy13o-39" value="" style="line;html=1;strokeWidth=1;align=left;verticalAlign=middle;spacingTop=-1;spacingLeft=3;spacingRight=3;rotatable=0;labelPosition=right;points=[];portConstraint=eastwest;" vertex="1" parent="71MwU1l557rjcyXKy13o-37">
          <mxGeometry y="70" width="210" height="8" as="geometry" />
        </mxCell>
        <mxCell id="71MwU1l557rjcyXKy13o-41" value="+ Perros(nombre : String, codigo : String, raza : String)&lt;br&gt;    + setRaza() : void&lt;br&gt;    + getRaza() : String&lt;br&gt;    + Comunican() : String {override}&lt;br&gt;    + Duermen() : String {override}&lt;br&gt;    + Comen() : String {override}" style="text;whiteSpace=wrap;html=1;" vertex="1" parent="71MwU1l557rjcyXKy13o-37">
          <mxGeometry y="78" width="210" height="110" as="geometry" />
        </mxCell>
        <mxCell id="71MwU1l557rjcyXKy13o-42" value="Pájaros" style="swimlane;fontStyle=2;align=center;verticalAlign=top;childLayout=stackLayout;horizontal=1;startSize=40;horizontalStack=0;resizeParent=1;resizeLast=0;collapsible=1;marginBottom=0;rounded=0;shadow=0;strokeWidth=1;" vertex="1" parent="WIyWlLk6GJQsqaUBKTNV-1">
          <mxGeometry x="860" y="580" width="210" height="222" as="geometry">
            <mxRectangle x="210" y="50" width="160" height="26" as="alternateBounds" />
          </mxGeometry>
        </mxCell>
        <mxCell id="71MwU1l557rjcyXKy13o-43" value="+ especie: String" style="text;align=left;verticalAlign=top;spacingLeft=4;spacingRight=4;overflow=hidden;rotatable=0;points=[[0,0.5],[1,0.5]];portConstraint=eastwest;rounded=0;shadow=0;html=0;" vertex="1" parent="71MwU1l557rjcyXKy13o-42">
          <mxGeometry y="40" width="210" height="30" as="geometry" />
        </mxCell>
        <mxCell id="71MwU1l557rjcyXKy13o-44" value="" style="line;html=1;strokeWidth=1;align=left;verticalAlign=middle;spacingTop=-1;spacingLeft=3;spacingRight=3;rotatable=0;labelPosition=right;points=[];portConstraint=eastwest;" vertex="1" parent="71MwU1l557rjcyXKy13o-42">
          <mxGeometry y="70" width="210" height="8" as="geometry" />
        </mxCell>
        <mxCell id="71MwU1l557rjcyXKy13o-45" value="+ Pajaros(nombre : String, codigo : String)&amp;nbsp;&lt;div&gt;+ setEspecie(): void&amp;nbsp;&lt;/div&gt;&lt;div&gt;+ getEspecie() : String&amp;nbsp;&lt;/div&gt;&lt;div&gt;+ Comunican() : String {override}&amp;nbsp;&lt;/div&gt;&lt;div&gt;+ Duermen() : String {override}&amp;nbsp;&lt;/div&gt;&lt;div&gt;+ Comen() : String {override}&lt;/div&gt;" style="text;whiteSpace=wrap;html=1;" vertex="1" parent="71MwU1l557rjcyXKy13o-42">
          <mxGeometry y="78" width="210" height="110" as="geometry" />
        </mxCell>
        <mxCell id="71MwU1l557rjcyXKy13o-46" value="Gatos" style="swimlane;fontStyle=2;align=center;verticalAlign=top;childLayout=stackLayout;horizontal=1;startSize=40;horizontalStack=0;resizeParent=1;resizeLast=0;collapsible=1;marginBottom=0;rounded=0;shadow=0;strokeWidth=1;" vertex="1" parent="WIyWlLk6GJQsqaUBKTNV-1">
          <mxGeometry x="930" y="318" width="210" height="222" as="geometry">
            <mxRectangle x="210" y="50" width="160" height="26" as="alternateBounds" />
          </mxGeometry>
        </mxCell>
        <mxCell id="71MwU1l557rjcyXKy13o-47" value="+ raza: String" style="text;align=left;verticalAlign=top;spacingLeft=4;spacingRight=4;overflow=hidden;rotatable=0;points=[[0,0.5],[1,0.5]];portConstraint=eastwest;rounded=0;shadow=0;html=0;" vertex="1" parent="71MwU1l557rjcyXKy13o-46">
          <mxGeometry y="40" width="210" height="30" as="geometry" />
        </mxCell>
        <mxCell id="71MwU1l557rjcyXKy13o-48" value="" style="line;html=1;strokeWidth=1;align=left;verticalAlign=middle;spacingTop=-1;spacingLeft=3;spacingRight=3;rotatable=0;labelPosition=right;points=[];portConstraint=eastwest;" vertex="1" parent="71MwU1l557rjcyXKy13o-46">
          <mxGeometry y="70" width="210" height="8" as="geometry" />
        </mxCell>
        <mxCell id="71MwU1l557rjcyXKy13o-49" value="+Gatos(nombre : String, codigo : String, raza : String)&lt;div&gt;+ setRaza() : void&lt;br&gt;    + getRaza() : String&lt;br&gt;    + Comunican() : String {override}&lt;br&gt;    + Duermen() : String {override}&lt;br&gt;    + Comen() : String {override}&lt;/div&gt;" style="text;whiteSpace=wrap;html=1;" vertex="1" parent="71MwU1l557rjcyXKy13o-46">
          <mxGeometry y="78" width="210" height="110" as="geometry" />
        </mxCell>
        <mxCell id="71MwU1l557rjcyXKy13o-50" value="PropietarioMascota" style="swimlane;fontStyle=2;align=center;verticalAlign=top;childLayout=stackLayout;horizontal=1;startSize=40;horizontalStack=0;resizeParent=1;resizeLast=0;collapsible=1;marginBottom=0;rounded=0;shadow=0;strokeWidth=1;" vertex="1" parent="WIyWlLk6GJQsqaUBKTNV-1">
          <mxGeometry x="1150" y="460" width="210" height="222" as="geometry">
            <mxRectangle x="210" y="50" width="160" height="26" as="alternateBounds" />
          </mxGeometry>
        </mxCell>
        <mxCell id="71MwU1l557rjcyXKy13o-51" value="." style="text;align=left;verticalAlign=top;spacingLeft=4;spacingRight=4;overflow=hidden;rotatable=0;points=[[0,0.5],[1,0.5]];portConstraint=eastwest;rounded=0;shadow=0;html=0;" vertex="1" parent="71MwU1l557rjcyXKy13o-50">
          <mxGeometry y="40" width="210" height="30" as="geometry" />
        </mxCell>
        <mxCell id="71MwU1l557rjcyXKy13o-52" value="" style="line;html=1;strokeWidth=1;align=left;verticalAlign=middle;spacingTop=-1;spacingLeft=3;spacingRight=3;rotatable=0;labelPosition=right;points=[];portConstraint=eastwest;" vertex="1" parent="71MwU1l557rjcyXKy13o-50">
          <mxGeometry y="70" width="210" height="8" as="geometry" />
        </mxCell>
        <mxCell id="71MwU1l557rjcyXKy13o-53" value="+ PropietarioMascota(nombre : String, codigo : String)&amp;nbsp;&lt;div&gt;+ Comunican() : String {override}&amp;nbsp;&lt;/div&gt;&lt;div&gt;+ Duermen() : String {override}&amp;nbsp;&lt;/div&gt;&lt;div&gt;+ Comen() : String {override}&lt;/div&gt;" style="text;whiteSpace=wrap;html=1;" vertex="1" parent="71MwU1l557rjcyXKy13o-50">
          <mxGeometry y="78" width="210" height="110" as="geometry" />
        </mxCell>
        <mxCell id="71MwU1l557rjcyXKy13o-55" value="ResponsableVehiculo" style="swimlane;fontStyle=2;align=center;verticalAlign=top;childLayout=stackLayout;horizontal=1;startSize=40;horizontalStack=0;resizeParent=1;resizeLast=0;collapsible=1;marginBottom=0;rounded=0;shadow=0;strokeWidth=1;" vertex="1" parent="WIyWlLk6GJQsqaUBKTNV-1">
          <mxGeometry x="30" y="-210" width="180" height="190" as="geometry">
            <mxRectangle x="210" y="50" width="160" height="26" as="alternateBounds" />
          </mxGeometry>
        </mxCell>
        <mxCell id="71MwU1l557rjcyXKy13o-56" value="- nombre: String" style="text;align=left;verticalAlign=top;spacingLeft=4;spacingRight=4;overflow=hidden;rotatable=0;points=[[0,0.5],[1,0.5]];portConstraint=eastwest;rounded=0;shadow=0;html=0;" vertex="1" parent="71MwU1l557rjcyXKy13o-55">
          <mxGeometry y="40" width="180" height="30" as="geometry" />
        </mxCell>
        <mxCell id="71MwU1l557rjcyXKy13o-57" value="" style="line;html=1;strokeWidth=1;align=left;verticalAlign=middle;spacingTop=-1;spacingLeft=3;spacingRight=3;rotatable=0;labelPosition=right;points=[];portConstraint=eastwest;" vertex="1" parent="71MwU1l557rjcyXKy13o-55">
          <mxGeometry y="70" width="180" height="8" as="geometry" />
        </mxCell>
        <mxCell id="71MwU1l557rjcyXKy13o-58" value="+ ResponsableVehiculo(nombre : String)&amp;nbsp;&lt;div&gt;+ getNombre() : String&amp;nbsp;&lt;/div&gt;&lt;div&gt;+ setNombre(): void&lt;/div&gt;" style="text;whiteSpace=wrap;html=1;" vertex="1" parent="71MwU1l557rjcyXKy13o-55">
          <mxGeometry y="78" width="180" height="112" as="geometry" />
        </mxCell>
        <mxCell id="71MwU1l557rjcyXKy13o-65" value="" style="endArrow=block;endSize=10;endFill=0;shadow=0;strokeWidth=1;rounded=0;curved=0;edgeStyle=elbowEdgeStyle;elbow=vertical;exitX=1.012;exitY=-0.027;exitDx=0;exitDy=0;exitPerimeter=0;" edge="1" parent="WIyWlLk6GJQsqaUBKTNV-1">
          <mxGeometry width="160" relative="1" as="geometry">
            <mxPoint x="790" y="131.19" as="sourcePoint" />
            <mxPoint x="740" y="130" as="targetPoint" />
          </mxGeometry>
        </mxCell>
        <mxCell id="71MwU1l557rjcyXKy13o-67" value="" style="endArrow=block;endSize=10;endFill=0;shadow=0;strokeWidth=1;rounded=0;curved=0;edgeStyle=elbowEdgeStyle;elbow=vertical;" edge="1" parent="WIyWlLk6GJQsqaUBKTNV-1">
          <mxGeometry width="160" relative="1" as="geometry">
            <mxPoint x="920" y="390" as="sourcePoint" />
            <mxPoint x="840" y="390" as="targetPoint" />
          </mxGeometry>
        </mxCell>
        <mxCell id="71MwU1l557rjcyXKy13o-78" value="" style="endArrow=block;dashed=1;endFill=0;endSize=12;html=1;rounded=0;shadow=0;strokeColor=default;strokeWidth=1;align=center;verticalAlign=middle;fontFamily=Helvetica;fontSize=11;fontColor=default;labelBackgroundColor=default;edgeStyle=elbowEdgeStyle;elbow=vertical;curved=0;" edge="1" parent="WIyWlLk6GJQsqaUBKTNV-1">
          <mxGeometry width="160" relative="1" as="geometry">
            <mxPoint x="400" y="258" as="sourcePoint" />
            <mxPoint x="400" y="318" as="targetPoint" />
          </mxGeometry>
        </mxCell>
        <mxCell id="71MwU1l557rjcyXKy13o-79" value="" style="endArrow=block;dashed=1;endFill=0;endSize=12;html=1;rounded=0;shadow=0;strokeColor=default;strokeWidth=1;align=center;verticalAlign=middle;fontFamily=Helvetica;fontSize=11;fontColor=default;labelBackgroundColor=default;edgeStyle=elbowEdgeStyle;elbow=vertical;curved=0;" edge="1" parent="WIyWlLk6GJQsqaUBKTNV-1">
          <mxGeometry width="160" relative="1" as="geometry">
            <mxPoint x="250" y="370" as="sourcePoint" />
            <mxPoint x="320" y="370" as="targetPoint" />
          </mxGeometry>
        </mxCell>
        <mxCell id="71MwU1l557rjcyXKy13o-80" value="" style="edgeStyle=segmentEdgeStyle;endArrow=classic;html=1;curved=0;rounded=0;endSize=8;startSize=8;shadow=0;strokeColor=default;strokeWidth=1;align=center;verticalAlign=middle;fontFamily=Helvetica;fontSize=11;fontColor=default;labelBackgroundColor=default;elbow=vertical;" edge="1" parent="WIyWlLk6GJQsqaUBKTNV-1">
          <mxGeometry width="50" height="50" relative="1" as="geometry">
            <mxPoint x="120" y="-20" as="sourcePoint" />
            <mxPoint x="120" y="30" as="targetPoint" />
          </mxGeometry>
        </mxCell>
        <mxCell id="71MwU1l557rjcyXKy13o-81" value="" style="edgeStyle=segmentEdgeStyle;endArrow=classic;html=1;curved=0;rounded=0;endSize=8;startSize=8;shadow=0;strokeColor=default;strokeWidth=1;align=center;verticalAlign=middle;fontFamily=Helvetica;fontSize=11;fontColor=default;labelBackgroundColor=default;elbow=vertical;" edge="1" parent="WIyWlLk6GJQsqaUBKTNV-1">
          <mxGeometry width="50" height="50" relative="1" as="geometry">
            <mxPoint x="1241" y="450" as="sourcePoint" />
            <mxPoint x="720" y="310" as="targetPoint" />
            <Array as="points">
              <mxPoint x="1241" y="280" />
              <mxPoint x="720" y="280" />
            </Array>
          </mxGeometry>
        </mxCell>
        <mxCell id="71MwU1l557rjcyXKy13o-82" value="" style="endArrow=block;endSize=10;endFill=0;shadow=0;strokeWidth=1;rounded=0;curved=0;edgeStyle=elbowEdgeStyle;elbow=vertical;" edge="1" parent="WIyWlLk6GJQsqaUBKTNV-1">
          <mxGeometry width="160" relative="1" as="geometry">
            <mxPoint x="610" y="510" as="sourcePoint" />
            <mxPoint x="120" y="700" as="targetPoint" />
            <Array as="points">
              <mxPoint x="380" y="570" />
            </Array>
          </mxGeometry>
        </mxCell>
        <mxCell id="71MwU1l557rjcyXKy13o-84" value="" style="endArrow=block;endSize=10;endFill=0;shadow=0;strokeWidth=1;rounded=0;curved=0;edgeStyle=elbowEdgeStyle;elbow=vertical;" edge="1" parent="WIyWlLk6GJQsqaUBKTNV-1">
          <mxGeometry width="160" relative="1" as="geometry">
            <mxPoint x="340" y="1040" as="sourcePoint" />
            <mxPoint x="130" y="970" as="targetPoint" />
          </mxGeometry>
        </mxCell>
        <mxCell id="71MwU1l557rjcyXKy13o-85" value="" style="endArrow=block;endSize=10;endFill=0;shadow=0;strokeWidth=1;rounded=0;curved=0;edgeStyle=elbowEdgeStyle;elbow=vertical;" edge="1" parent="WIyWlLk6GJQsqaUBKTNV-1">
          <mxGeometry width="160" relative="1" as="geometry">
            <mxPoint x="120" y="300" as="sourcePoint" />
            <mxPoint x="119.99999999999994" y="258.81399999999985" as="targetPoint" />
          </mxGeometry>
        </mxCell>
        <mxCell id="71MwU1l557rjcyXKy13o-87" value="" style="endArrow=block;endSize=10;endFill=0;shadow=0;strokeWidth=1;rounded=0;curved=0;edgeStyle=elbowEdgeStyle;elbow=vertical;" edge="1" parent="WIyWlLk6GJQsqaUBKTNV-1">
          <mxGeometry width="160" relative="1" as="geometry">
            <mxPoint x="900" y="570" as="sourcePoint" />
            <mxPoint x="840" y="440" as="targetPoint" />
            <Array as="points">
              <mxPoint x="890" y="440" />
            </Array>
          </mxGeometry>
        </mxCell>
        <mxCell id="71MwU1l557rjcyXKy13o-88" value="" style="endArrow=block;endSize=10;endFill=0;shadow=0;strokeWidth=1;rounded=0;curved=0;edgeStyle=elbowEdgeStyle;elbow=vertical;" edge="1" parent="WIyWlLk6GJQsqaUBKTNV-1">
          <mxGeometry width="160" relative="1" as="geometry">
            <mxPoint x="740" y="580" as="sourcePoint" />
            <mxPoint x="740" y="540" as="targetPoint" />
          </mxGeometry>
        </mxCell>
        <mxCell id="71MwU1l557rjcyXKy13o-89" value="" style="endArrow=block;endSize=10;endFill=0;shadow=0;strokeWidth=1;rounded=0;curved=0;edgeStyle=elbowEdgeStyle;elbow=vertical;" edge="1" parent="WIyWlLk6GJQsqaUBKTNV-1">
          <mxGeometry width="160" relative="1" as="geometry">
            <mxPoint x="334" y="820" as="sourcePoint" />
            <mxPoint x="284" y="820" as="targetPoint" />
          </mxGeometry>
        </mxCell>
      </root>
    </mxGraphModel>
  </diagram>
</mxfile>
